PathFileType	4	(X/Y/Z)	C:\Users\Basilio\Documents\Thesis Gigler\squatting_fais\c3dfiles\040\SJ_pre4\markers_experimental.trc
DataRate	CameraRate	NumFrames	NumMarkers	Units	OrigDataRate	OrigDataStartFrame	OrigNumFrames
200.000000	200.000000	4	63	mm	200.000000	297	1189
Frame#	Time	FHD			LBHD			RBHD			C7			T10			CLAV			LSHO			LUUPA			LMUPA			LDUPA			LLEP			LMEP			LRAD			LUL			LRFIN			RSHO			RUPA1			RMUPA			RDUPA			RLEP			RMEP			RRAD			RUL			RUFIN			LASI			RASI			USACR			LSACR			RSACR			LTHI1			LTHI2			LTHI3			LTHI4			LLFC			LMFC			LTIB1			LTIB2			LTIB3			LTIB4			LLMAL			LMMAL			LHEE			LMT1			LMT2			LMT5			RTHI			RTHI2			RTHI3			RTHI4			RLFC			RMFC			RTIB1			RTIB2			RTIB3			RTIB4			RLMAL			RMMAL			RHEE			RMT1			RMT2			RMT5			*61			*62			
		X1	Y1	Z1	X2	Y2	Z2	X3	Y3	Z3	X4	Y4	Z4	X5	Y5	Z5	X6	Y6	Z6	X7	Y7	Z7	X8	Y8	Z8	X9	Y9	Z9	X10	Y10	Z10	X11	Y11	Z11	X12	Y12	Z12	X13	Y13	Z13	X14	Y14	Z14	X15	Y15	Z15	X16	Y16	Z16	X17	Y17	Z17	X18	Y18	Z18	X19	Y19	Z19	X20	Y20	Z20	X21	Y21	Z21	X22	Y22	Z22	X23	Y23	Z23	X24	Y24	Z24	X25	Y25	Z25	X26	Y26	Z26	X27	Y27	Z27	X28	Y28	Z28	X29	Y29	Z29	X30	Y30	Z30	X31	Y31	Z31	X32	Y32	Z32	X33	Y33	Z33	X34	Y34	Z34	X35	Y35	Z35	X36	Y36	Z36	X37	Y37	Z37	X38	Y38	Z38	X39	Y39	Z39	X40	Y40	Z40	X41	Y41	Z41	X42	Y42	Z42	X43	Y43	Z43	X44	Y44	Z44	X45	Y45	Z45	X46	Y46	Z46	X47	Y47	Z47	X48	Y48	Z48	X49	Y49	Z49	X50	Y50	Z50	X51	Y51	Z51	X52	Y52	Z52	X53	Y53	Z53	X54	Y54	Z54	X55	Y55	Z55	X56	Y56	Z56	X57	Y57	Z57	X58	Y58	Z58	X59	Y59	Z59	X60	Y60	Z60	X61	Y61	Z61	X62	Y62	Z62	X63	Y63	Z63	

298	1.485	-163.510498046875	1699.209838867188	-899.7641601562502	-287.6421508789063	1646.420654296875	-940.0950927734377	-338.6260681152344	1607.876953125	-807.517761230469	-356.6512756347657	1506.468139648438	-858.0103759765627	-459.9903564453126	1204.01953125	-860.0007324218752	-247.0590209960938	1411.622802734375	-850.0743408203127	-289.2015380859376	1465.476318359375	-1025.2294921875	-373.7633666992188	1355.76171875	-1178.580444335938	-363.3551330566407	1307.08740234375	-1175.389892578125	-402.4165344238282	1308.996704101563	-1221.864013671875	-438.1884765625001	1267.932983398438	-1264.1650390625	-502.5113525390626	1270.2275390625	-1221.77197265625	-449.0710754394532	1030.995849609375	-1091.735107421875	-394.220672607422	1005.381774902344	-1138.192993164063	-401.0626220703126	1036.442138671875	-1043.059448242188	-294.4557495117188	1455.537475585938	-679.1441040039064	-419.3441467285157	1382.103881835938	-532.9275512695314	-407.556365966797	1334.020263671875	-523.9382324218751	-454.637664794922	1342.00439453125	-487.061248779297	-480.2285461425782	1286.09716796875	-447.9871215820314	-546.5895996093751	1282.261352539063	-502.8672180175782	-447.5914611816407	1066.522583007813	-629.4423217773439	-416.4041137695314	1029.514526367188	-570.5369262695314	-391.735321044922	1065.615844726563	-670.3809204101564	-326.5632934570313	993.0301513671877	-950.118835449219	-343.9541320800782	997.892028808594	-736.7634277343751	-508.3236083984376	1071.734130859375	-855.3455810546877	-519.3228149414064	1042.790161132813	-883.3554687500002	-526.8679199218751	1043.468872070313	-828.0393676757815	-398.2628173828126	752.3983154296876	-1060.32666015625	-339.5547790527344	695.5437011718751	-1082.06494140625	-296.1607971191407	713.4345092773439	-1083.111328125	-341.4943542480469	635.9461059570314	-1075.422119140625	-285.5757446289063	521.5297851562501	-1093.416015625	-280.4886779785157	481.9532775878907	-970.9639892578127	-287.2905273437501	295.7064208984376	-1090.294677734375	-366.1675109863282	280.8461914062501	-1129.235961914063	-326.6930541992188	262.0801391601563	-1119.262939453125	-335.5343933105469	179.8617095947266	-1097.506958007813	-418.7712707519532	103.1806259155274	-1119.905639648438	-378.0458679199219	107.0237350463867	-1038.308959960938	-473.502166748047	44.12173080444337	-1074.644775390625	-251.1447753906251	59.09035873413087	-1081.1708984375	-258.2311706542969	57.45895385742189	-1127.667114257813	-310.1910095214844	33.50053787231446	-1170.512329101563	-382.3486022949219	754.9546508789064	-628.3822021484376	-336.0009155273438	707.6596069335939	-616.5363159179689	-303.1242065429688	716.0248413085939	-618.9271240234376	-344.9841003417969	624.3413696289064	-625.2162475585939	-312.0073242187501	502.8631896972657	-614.9011840820314	-288.3110961914063	485.5262451171876	-742.4872436523439	-305.4819946289063	311.2478027343751	-624.4127807617189	-400.8116455078126	261.0166625976563	-611.8499145507814	-357.7369384765626	243.2566528320313	-615.2020874023439	-350.7781982421876	192.1373748779297	-644.4033813476564	-435.9616699218751	99.23233032226565	-629.5671997070314	-399.2587280273439	105.3905868530274	-712.7778930664064	-488.2321777343751	46.15537643432618	-693.4403686523439	-269.1258239746094	58.77846527099611	-648.2199096679689	-282.3388671875001	59.65955352783205	-609.8098754882814	-333.4637451171876	34.8094711303711	-567.2700195312501	nan	nan	nan	nan	nan	nan	
299	1.49	-162.1268615722657	1696.17138671875	-899.4631958007815	-285.4513854980469	1642.913452148438	-939.736511230469	-336.7933959960938	1604.181030273438	-807.3205566406252	-354.9231872558594	1503.198364257813	-857.8367309570315	-460.0007629394532	1201.765625	-859.782897949219	-245.6747589111329	1408.052734375	-849.9260864257815	-287.5415344238282	1462.418579101563	-1024.807250976563	-372.1890869140626	1353.315795898438	-1178.419799804688	-362.3446655273438	1304.601928710938	-1175.391967773438	-401.3145751953126	1306.76318359375	-1221.840209960938	-436.9339294433595	1265.704833984375	-1263.936157226563	-501.7089843750001	1268.980590820313	-1221.966918945313	-450.193572998047	1029.2724609375	-1091.827880859375	-395.3528747558595	1003.1494140625	-1138.304565429688	-402.0987243652345	1034.42041015625	-1042.903686523438	-292.8614501953126	1452.120971679688	-678.8322143554689	-418.1723022460939	1379.802978515625	-532.8125000000001	-406.4642333984376	1331.520385742188	-523.8342285156251	-453.568572998047	1340.010864257813	-486.7261657714845	-480.0201110839845	1284.833129882813	-447.9893188476564	-546.2991333007814	1281.231689453125	-502.475311279297	-448.8632812500001	1064.541748046875	-629.3361816406251	-418.2819213867189	1027.456176757813	-570.4232177734376	-393.4116821289064	1063.539916992188	-670.2875366210939	-327.9427490234376	990.0242919921877	-949.907165527344	-345.5029602050782	995.852722167969	-736.6944580078126	-509.4389038085939	1069.687622070313	-855.2407836914065	-521.6849975585939	1040.95751953125	-883.6480102539065	-527.9329223632814	1041.5595703125	-827.9287109375002	-398.2621459960939	750.3846435546876	-1060.887573242188	-338.7938842773438	693.7742309570314	-1082.828857421875	-295.4431762695313	712.0806274414064	-1083.539184570313	-340.3056945800782	634.4130859375001	-1076.101196289063	-282.8090209960938	520.6047973632814	-1093.944580078125	-278.3164672851563	480.7732543945314	-971.6133422851565	-285.5173339843751	295.0810852050782	-1090.633666992188	-365.1027526855469	280.4478759765626	-1129.614501953125	-325.4933471679688	261.4429626464844	-1119.506591796875	-335.0018310546876	179.8225555419922	-1097.756103515625	-418.6051635742189	103.2007675170899	-1119.770751953125	-377.8966064453126	106.9865112304688	-1038.264526367188	-473.5084533691407	44.16264724731446	-1074.6396484375	-251.3032531738282	59.1378517150879	-1081.171508789063	-258.2188720703126	57.92058181762697	-1127.574829101563	-310.1644287109376	33.48475646972657	-1170.535766601563	-382.3118286132813	752.7572021484376	-627.8947143554689	-335.1889953613282	706.3549804687501	-615.1170654296876	-302.3074645996094	714.7966918945314	-618.3497314453126	-344.1010131835938	622.3778686523439	-624.3779296875001	-309.3170166015626	501.7373962402345	-614.0745239257814	-286.4273376464844	484.8386230468751	-741.3533935546876	-303.9703979492188	309.8767700195313	-623.7753295898439	-399.4820251464845	260.6140136718751	-611.8671875000001	-356.5972290039063	242.760238647461	-614.6936645507814	-350.1053161621094	191.3394622802735	-644.1732177734376	-435.8869628906251	99.26621246337893	-629.6024780273439	-398.5161437988282	105.0261001586914	-712.6708374023439	-488.2269287109376	46.16334533691407	-693.4432373046876	-269.1243591308594	58.73084640502931	-648.1253051757814	-282.3921203613282	59.80967330932619	-609.7471313476564	-333.5678100585938	34.90536117553712	-567.2053833007814	nan	nan	nan	nan	nan	nan	
300	1.495	-160.2320404052735	1692.866577148438	-899.1633911132815	-283.9686279296876	1639.504150390625	-939.517761230469	-335.2092895507813	1600.777709960938	-806.8792114257815	-353.5804138183594	1500.483276367188	-857.5756835937502	-460.0552062988282	1199.331420898438	-859.6658935546877	-244.4805603027344	1404.488647460938	-849.6617431640627	-285.4989624023438	1459.06787109375	-1024.503784179688	-370.3368835449219	1350.623779296875	-1178.576538085938	-361.2208862304688	1301.8408203125	-1175.328491210938	-400.1473388671876	1304.572021484375	-1222.080444335938	-436.0726318359376	1263.781372070313	-1264.089599609375	-500.6605224609376	1267.421630859375	-1222.29833984375	-450.8973999023439	1027.540161132813	-1091.68505859375	-396.8530883789064	1001.117553710938	-1138.13134765625	-403.297332763672	1032.223388671875	-1042.927001953125	-291.2604675292969	1449.098999023438	-678.6824340820314	-416.9737854003907	1377.367919921875	-532.4407958984376	-405.7972717285157	1329.14794921875	-523.4387207031251	-452.6866149902345	1338.04443359375	-486.4444885253907	-479.7940979003907	1282.9638671875	-447.7217712402345	-546.0222167968751	1279.923095703125	-502.079071044922	-450.8331604003907	1062.555053710938	-629.2932739257814	-420.215545654297	1025.027465820313	-570.6807861328126	-394.6257324218751	1061.083984375	-669.9802856445314	-329.3352966308594	987.3500976562502	-950.032409667969	-347.5140380859376	993.0939941406252	-736.8023071289064	-510.4446105957032	1067.426147460938	-855.2119140625002	-521.7664794921876	1038.705688476563	-883.266784667969	-529.0494995117189	1039.386352539063	-827.9798583984377	-397.9866943359376	747.9772338867189	-1061.586181640625	-337.9432373046876	692.0953369140626	-1083.501098632813	-294.7672729492188	710.8585205078126	-1083.872802734375	-339.1009216308594	632.6370849609376	-1076.945434570313	-280.4968872070313	519.5510253906251	-1094.670532226563	-275.2372436523438	480.2400207519532	-972.1654052734377	-284.0245361328126	294.3104858398438	-1090.853393554688	-363.8985595703126	280.1139831542969	-1129.935913085938	-323.9128112792969	260.9690246582032	-1120.185668945313	-334.1659240722657	179.4237213134766	-1097.709716796875	-418.2921447753907	103.2009582519532	-1119.775756835938	-377.6901855468751	106.86474609375	-1038.154663085938	-473.4658813476564	44.16094207763673	-1074.588745117188	-251.2528533935547	59.08613586425783	-1081.159545898438	-258.1742553710938	57.81253814697267	-1127.572387695313	-310.1010742187501	33.44324493408204	-1170.550415039063	-382.6010131835938	750.7011108398439	-627.1555175781251	-334.7578430175782	704.4303588867189	-614.6260375976564	-302.3155212402344	713.3099975585939	-617.6894531250001	-342.5753479003907	621.0513305664064	-623.2979736328126	-307.3753356933594	500.7103881835939	-612.9365844726564	-283.9846496582032	483.8006591796876	-740.2406616210939	-302.6775207519532	308.9965209960938	-623.2498779296876	-398.4602661132814	260.1494750976563	-611.5312500000001	-355.7363891601563	242.1807708740235	-614.3539428710939	-349.6960754394532	190.8363952636719	-644.0161132812501	-435.7114562988282	99.16199493408206	-629.6174316406251	-398.8665771484376	105.3521270751953	-712.8261108398439	-488.1284484863282	46.25216674804688	-693.4990844726564	-269.1768493652344	58.90245437622072	-648.0974731445314	-282.2962646484376	59.6611671447754	-609.6990356445314	-333.5734863281251	34.8703956604004	-567.1873779296876	nan	nan	nan	nan	nan	nan	
301	1.5	-157.8582458496094	1688.878784179688	-898.6137695312502	-282.0535888671876	1635.810302734375	-939.174011230469	-333.2643737792969	1597.006713867188	-806.898132324219	-351.6195068359376	1496.992065429688	-857.4051513671877	-460.1046447753907	1196.758056640625	-859.5203247070315	-243.4921875000001	1400.730590820313	-849.3828125000002	-283.7604370117188	1455.879760742188	-1024.190185546875	-369.1156616210938	1347.971923828125	-1178.532470703125	-360.0073852539063	1298.870239257813	-1175.2314453125	-398.9263305664064	1302.15478515625	-1222.044067382813	-434.957244873047	1261.52880859375	-1264.129638671875	-499.6647949218751	1265.816772460938	-1222.77587890625	-451.5769042968751	1025.57080078125	-1091.694580078125	-398.0617675781251	998.7066040039065	-1138.002563476563	-404.5182189941407	1030.014038085938	-1042.886108398438	-289.5766601562501	1445.451171875	-678.5896606445314	-415.5637207031251	1375.055786132813	-531.9900512695314	-405.1392517089845	1326.5556640625	-523.1716918945314	-451.9647216796876	1335.9345703125	-486.0607299804689	-479.2131347656251	1280.995849609375	-447.5863342285157	-545.6533813476564	1278.636596679688	-501.7580566406251	-452.2987670898439	1060.54248046875	-629.2627563476564	-422.3930664062501	1022.631958007813	-570.6770629882814	-396.6213989257814	1058.740844726563	-669.8614501953126	-331.1759948730469	984.5508422851565	-949.8439941406252	-348.9565734863282	990.0620117187502	-736.9682617187501	-511.3610229492189	1065.255981445313	-855.3044433593752	-523.1884155273439	1036.651733398438	-883.4273071289065	-530.3439331054689	1037.292358398438	-827.9087524414065	-397.9209289550782	745.8693237304689	-1062.221435546875	-337.3158569335938	690.4586181640626	-1084.08056640625	-294.0184631347657	709.4963989257814	-1083.937377929688	-337.4661560058594	630.8504638671876	-1077.717041015625	-278.1049804687501	518.6141967773439	-1095.346923828125	-273.6061706542969	479.1562805175782	-973.2544555664065	-282.9700927734376	294.4133300781251	-1091.0771484375	-362.5209350585938	279.6144714355469	-1130.232421875	-322.6372985839844	260.4883422851563	-1120.516235351563	-333.4396972656251	178.5672607421875	-1097.862915039063	-418.095672607422	103.2011871337891	-1119.724609375	-377.5563354492188	106.7877960205078	-1038.018798828125	-473.4177551269532	44.17843246459962	-1074.594116210938	-251.1029357910157	59.06822967529298	-1081.218872070313	-258.1750793457032	57.8112030029297	-1127.565307617188	-310.1996154785157	33.50380325317384	-1170.548461914063	-382.4396362304688	748.4172973632814	-626.5068359375001	-334.7189636230469	702.7522583007814	-613.8748168945314	-301.7055053710938	712.3334350585939	-616.8983154296876	-341.6257934570313	618.7702636718751	-622.5487060546876	-305.1670227050782	499.7101135253907	-611.8646240234376	-281.7948608398438	483.0847473144532	-739.2940673828126	-300.9407348632813	308.3629455566407	-622.7431030273439	-396.870330810547	259.2111206054688	-611.0231933593751	-355.0497131347657	241.5113830566407	-614.0177612304689	-348.4364624023438	190.8656005859375	-643.1893310546876	-435.5796813964845	99.13957214355472	-629.6693725585939	-398.7542724609376	105.3441467285157	-712.8449096679689	-488.0423278808595	46.3103256225586	-693.5240478515626	-269.1419372558594	58.91647338867189	-648.0692138671876	-282.2277526855469	59.65117645263673	-609.5501098632814	-333.5777282714844	34.74548721313477	-567.1627807617189	nan	nan	nan	nan	nan	nan	
